<svg xmlns="http://www.w3.org/2000/svg" xmlns:xlink="http://www.w3.org/1999/xlink" width="1150" height="733.01"><rect width="1150" height="733.01" rx="5" ry="5" class="a"/><svg y="0%" x="0%"><circle cx="20" cy="20" r="6" fill="#ff5f58"/><circle cx="40" cy="20" r="6" fill="#ffbd2e"/><circle cx="60" cy="20" r="6" fill="#18c132"/></svg><svg height="673.01" viewBox="0 0 111 67.301" width="1110" x="15" xmlns="http://www.w3.org/2000/svg" xmlns:xlink="http://www.w3.org/1999/xlink" y="50"><style>@keyframes r{0%{transform:translateX(0)}.6%{transform:translateX(-222px)}.7%{transform:translateX(-333px)}.8%{transform:translateX(-555px)}1.2%{transform:translateX(-666px)}1.7%{transform:translateX(-1221px)}1.8%{transform:translateX(-1332px)}8.8%{transform:translateX(-1554px)}9.1%{transform:translateX(-1665px)}9.7%{transform:translateX(-1776px)}10.6%{transform:translateX(-1887px)}10.9%{transform:translateX(-1998px)}11.7%{transform:translateX(-2109px)}13.5%{transform:translateX(-2220px)}15%{transform:translateX(-2331px)}16.6%{transform:translateX(-2442px)}24.4%{transform:translateX(-2664px)}28.4%{transform:translateX(-2886px)}28.5%{transform:translateX(-3219px)}38.3%{transform:translateX(-3441px)}38.6%{transform:translateX(-3996px)}46.8%{transform:translateX(-4218px)}47.6%{transform:translateX(-4329px)}47.7%{transform:translateX(-4551px)}53.7%{transform:translateX(-4773px)}54%{transform:translateX(-5106px)}65.3%{transform:translateX(-5217px)}68.4%{transform:translateX(-5328px)}68.5%{transform:translateX(-5550px)}76.1%{transform:translateX(-5772px)}76.4%{transform:translateX(-6105px)}to{transform:translateX(-6327px)}}.a{fill:#282d35}.f{fill:#b9c0cb}.g{fill:#71bef2;font-weight:700}.h{fill:#a8cc8c}.i{fill:#777}.j{fill:#7f7}.k{fill:#55f}.l{fill:#55a}.m,.n{fill:#ff5;font-weight:700}.n{fill:#55f}.t{fill:#e88388}.u{fill:#555}</style><g font-size="1.67" font-family="Monaco,Consolas,Menlo,'Bitstream Vera Sans Mono','Powerline Symbols',monospace"><defs><symbol id="1"><text y="1.67" class="f">Welcome</text><text x="8.016" y="1.67" class="f">to</text><text x="11.022" y="1.67" class="f">fish,</text><text x="17.034" y="1.67" class="f">the</text><text x="21.042" y="1.67" class="f">friendly</text><text x="30.06" y="1.67" class="f">interactive</text><text x="42.084" y="1.67" class="f">shell</text></symbol><symbol id="2"><text y="1.67" class="g">archetypes</text><text x="10.02" y="1.67" class="f">/</text><text x="13.026" y="1.67" class="f">config.toml</text><text x="26.052" y="1.67" class="g">content</text><text x="33.066" y="1.67" class="f">/</text><text x="36.072" y="1.67" class="h">deploy.sh</text><text x="45.09" y="1.67" class="f">*</text><text x="48.096" y="1.67" class="g">public</text><text x="54.108" y="1.67" class="f">/</text><text x="57.114" y="1.67" class="f">README.md</text><text x="68.136" y="1.67" class="g">resources</text><text x="77.154" y="1.67" class="f">/</text><text x="80.16" y="1.67" class="g">static</text><text x="86.172" y="1.67" class="f">/</text><text x="89.178" y="1.67" class="g">themes</text><text x="95.19" y="1.67" class="f">/</text></symbol><symbol id="3"><text y="1.67" class="i">[</text><text x="1.002" y="1.67" class="j">0</text><text x="2.004" y="1.67" class="i">]</text><text x="4.008" y="1.67" class="k">dcefram</text><text x="11.022" y="1.67" class="l">@</text><text x="12.024" y="1.67" class="k">danphilus</text><text x="22.044" y="1.67" class="h">~/p/blog</text><text x="31.062" y="1.67" class="m">(master)</text><text x="40.08" y="1.67" class="n">➞</text></symbol><symbol id="4"><text y="1.67" class="i">[</text><text x="1.002" y="1.67" class="j">0</text><text x="2.004" y="1.67" class="i">]</text><text x="4.008" y="1.67" class="k">dcefram</text><text x="11.022" y="1.67" class="l">@</text><text x="12.024" y="1.67" class="k">danphilus</text><text x="22.044" y="1.67" class="h">~/p/blog</text><text x="31.062" y="1.67" class="m">(master)</text><text x="40.08" y="1.67" class="n">➞</text><text x="42.084" y="1.67" fill="#66c2cd">kahitsaan</text><text x="52.104" y="1.67" class="f">--sa=greenbelt</text></symbol><symbol id="5"><text y="1.67" class="f">Torch</text></symbol><symbol id="6"><text y="1.67" class="f">https://www.zomato.com/manila/torch-greenbelt-makati-city?utm_source=api_basic_user&amp;utm_medium=api&amp;utm_campaign</text></symbol><symbol id="7"><text y="1.67" class="f">=v2.1</text></symbol><symbol id="8"><text y="1.67" class="f">Conti&apos;s</text></symbol><symbol id="9"><text y="1.67" class="f">https://www.zomato.com/manila/contis-greenbelt-makati-city?utm_source=api_basic_user&amp;utm_medium=api&amp;utm_campaig</text></symbol><symbol id="10"><text y="1.67" class="f">n=v2.1</text></symbol><symbol id="11"><text y="1.67" class="f">Bluesmith</text><text x="10.02" y="1.67" class="f">Coffee</text><text x="17.034" y="1.67" class="f">&amp;</text><text x="19.038" y="1.67" class="f">Kitchen</text></symbol><symbol id="12"><text y="1.67" class="f">https://www.zomato.com/manila/bluesmith-coffee-kitchen-greenbelt-makati-city?utm_source=api_basic_user&amp;utm_medi</text></symbol><symbol id="13"><text y="1.67" class="f">um=api&amp;utm_campaign=v2.1</text></symbol><symbol id="a"><path fill="transparent" d="M0 0h111v31H0z"/></symbol><symbol id="b"><path fill="#6f7683" d="M0 0h1.102v2.171H0z"/></symbol></defs><path class="a" d="M0 0h111v67.301H0z"/><g style="animation-duration:11.009353s;animation-iteration-count:infinite;animation-name:r;animation-timing-function:steps(1,end)"><svg width="6438"><svg><use xlink:href="#a"/><use xlink:href="#b" x="-.004"/></svg><svg x="111"><use xlink:href="#a"/><use xlink:href="#b" x="-.004"/></svg><svg x="222"><use xlink:href="#a"/><use xlink:href="#b" x="-.004"/></svg><svg x="333"><use xlink:href="#a"/><use xlink:href="#b" x="-.004" y="2.146"/><use xlink:href="#1"/></svg><svg x="444"><use xlink:href="#a"/><use xlink:href="#b" x="-.004" y="2.146"/><use xlink:href="#1"/></svg><svg x="555"><use xlink:href="#a"/><use xlink:href="#b" x="-.004" y="4.317"/><use xlink:href="#1"/></svg><svg x="666"><use xlink:href="#a"/><use xlink:href="#b" x="-.004" y="6.488"/><use xlink:href="#1"/><use xlink:href="#2" y="4.342"/></svg><svg x="777"><use xlink:href="#a"/><use xlink:href="#b" x="-.004" y="6.488"/><use xlink:href="#1"/><use xlink:href="#2" y="4.342"/></svg><svg x="888"><use xlink:href="#a"/><use xlink:href="#b" x="-.004" y="6.488"/><use xlink:href="#1"/><use xlink:href="#2" y="4.342"/></svg><svg x="999"><use xlink:href="#a"/><use xlink:href="#b" x="-.004" y="6.488"/><use xlink:href="#1"/><use xlink:href="#2" y="4.342"/></svg><svg x="1110"><use xlink:href="#a"/><use xlink:href="#b" x="-.004" y="6.488"/><use xlink:href="#1"/><use xlink:href="#2" y="4.342"/></svg><svg x="1221"><use xlink:href="#a"/><use xlink:href="#b" x="-.004" y="6.488"/><use xlink:href="#1"/><use xlink:href="#2" y="4.342"/></svg><svg x="1332"><use xlink:href="#a"/><use xlink:href="#b" x="41.996" y="6.488"/><use xlink:href="#1"/><use xlink:href="#2" y="4.342"/><use xlink:href="#3" y="6.513"/></svg><svg x="1443"><use xlink:href="#a"/><use xlink:href="#b" x="42.996" y="6.488"/><use xlink:href="#1"/><use xlink:href="#2" y="4.342"/><text y="8.183" class="i">[</text><text x="1.002" y="8.183" class="j">0</text><text x="2.004" y="8.183" class="i">]</text><text x="4.008" y="8.183" class="k">dcefram</text><text x="11.022" y="8.183" class="l">@</text><text x="12.024" y="8.183" class="k">danphilus</text><text x="22.044" y="8.183" class="h">~/p/blog</text><text x="31.062" y="8.183" class="m">(master)</text><text x="40.08" y="8.183" class="n">➞</text><text x="42.084" y="8.183" class="f">k</text></svg><svg x="1554"><use xlink:href="#a"/><use xlink:href="#b" x="42.996" y="6.488"/><use xlink:href="#1"/><use xlink:href="#2" y="4.342"/><text y="8.183" class="i">[</text><text x="1.002" y="8.183" class="j">0</text><text x="2.004" y="8.183" class="i">]</text><text x="4.008" y="8.183" class="k">dcefram</text><text x="11.022" y="8.183" class="l">@</text><text x="12.024" y="8.183" class="k">danphilus</text><text x="22.044" y="8.183" class="h">~/p/blog</text><text x="31.062" y="8.183" class="m">(master)</text><text x="40.08" y="8.183" class="n">➞</text><text x="42.084" y="8.183" class="t">k</text></svg><svg x="1665"><use xlink:href="#a"/><use xlink:href="#b" x="42.996" y="6.488"/><use xlink:href="#1"/><use xlink:href="#2" y="4.342"/><text y="8.183" class="i">[</text><text x="1.002" y="8.183" class="j">0</text><text x="2.004" y="8.183" class="i">]</text><text x="4.008" y="8.183" class="k">dcefram</text><text x="11.022" y="8.183" class="l">@</text><text x="12.024" y="8.183" class="k">danphilus</text><text x="22.044" y="8.183" class="h">~/p/blog</text><text x="31.062" y="8.183" class="m">(master)</text><text x="40.08" y="8.183" class="n">➞</text><text x="42.084" y="8.183" class="t">k</text><text x="43.086" y="8.183" class="u">ahitsaan</text><text x="52.104" y="8.183" class="u">--sa=greenbelt</text></svg><svg x="1776"><use xlink:href="#a"/><use xlink:href="#b" x="43.996" y="6.488"/><use xlink:href="#1"/><use xlink:href="#2" y="4.342"/><text y="8.183" class="i">[</text><text x="1.002" y="8.183" class="j">0</text><text x="2.004" y="8.183" class="i">]</text><text x="4.008" y="8.183" class="k">dcefram</text><text x="11.022" y="8.183" class="l">@</text><text x="12.024" y="8.183" class="k">danphilus</text><text x="22.044" y="8.183" class="h">~/p/blog</text><text x="31.062" y="8.183" class="m">(master)</text><text x="40.08" y="8.183" class="n">➞</text><text x="42.084" y="8.183" class="t">ka</text><text x="44.088" y="8.183" class="u">hitsaan</text><text x="52.104" y="8.183" class="u">--sa=greenbelt</text></svg><svg x="1887"><use xlink:href="#a"/><use xlink:href="#b" x="44.996" y="6.488"/><use xlink:href="#1"/><use xlink:href="#2" y="4.342"/><text y="8.183" class="i">[</text><text x="1.002" y="8.183" class="j">0</text><text x="2.004" y="8.183" class="i">]</text><text x="4.008" y="8.183" class="k">dcefram</text><text x="11.022" y="8.183" class="l">@</text><text x="12.024" y="8.183" class="k">danphilus</text><text x="22.044" y="8.183" class="h">~/p/blog</text><text x="31.062" y="8.183" class="m">(master)</text><text x="40.08" y="8.183" class="n">➞</text><text x="42.084" y="8.183" class="t">kah</text><text x="45.09" y="8.183" class="u">itsaan</text><text x="52.104" y="8.183" class="u">--sa=greenbelt</text></svg><svg x="1998"><use xlink:href="#a"/><use xlink:href="#b" x="45.996" y="6.488"/><use xlink:href="#1"/><use xlink:href="#2" y="4.342"/><text y="8.183" class="i">[</text><text x="1.002" y="8.183" class="j">0</text><text x="2.004" y="8.183" class="i">]</text><text x="4.008" y="8.183" class="k">dcefram</text><text x="11.022" y="8.183" class="l">@</text><text x="12.024" y="8.183" class="k">danphilus</text><text x="22.044" y="8.183" class="h">~/p/blog</text><text x="31.062" y="8.183" class="m">(master)</text><text x="40.08" y="8.183" class="n">➞</text><text x="42.084" y="8.183" class="t">kahi</text><text x="46.092" y="8.183" class="u">tsaan</text><text x="52.104" y="8.183" class="u">--sa=greenbelt</text></svg><svg x="2109"><use xlink:href="#a"/><use xlink:href="#b" x="46.996" y="6.488"/><use xlink:href="#1"/><use xlink:href="#2" y="4.342"/><text y="8.183" class="i">[</text><text x="1.002" y="8.183" class="j">0</text><text x="2.004" y="8.183" class="i">]</text><text x="4.008" y="8.183" class="k">dcefram</text><text x="11.022" y="8.183" class="l">@</text><text x="12.024" y="8.183" class="k">danphilus</text><text x="22.044" y="8.183" class="h">~/p/blog</text><text x="31.062" y="8.183" class="m">(master)</text><text x="40.08" y="8.183" class="n">➞</text><text x="42.084" y="8.183" class="t">kahit</text><text x="47.094" y="8.183" class="u">saan</text><text x="52.104" y="8.183" class="u">--sa=greenbelt</text></svg><svg x="2220"><use xlink:href="#a"/><use xlink:href="#b" x="47.996" y="6.488"/><use xlink:href="#1"/><use xlink:href="#2" y="4.342"/><text y="8.183" class="i">[</text><text x="1.002" y="8.183" class="j">0</text><text x="2.004" y="8.183" class="i">]</text><text x="4.008" y="8.183" class="k">dcefram</text><text x="11.022" y="8.183" class="l">@</text><text x="12.024" y="8.183" class="k">danphilus</text><text x="22.044" y="8.183" class="h">~/p/blog</text><text x="31.062" y="8.183" class="m">(master)</text><text x="40.08" y="8.183" class="n">➞</text><text x="42.084" y="8.183" class="t">kahits</text><text x="48.096" y="8.183" class="u">aan</text><text x="52.104" y="8.183" class="u">--sa=greenbelt</text></svg><svg x="2331"><use xlink:href="#a"/><use xlink:href="#b" x="48.996" y="6.488"/><use xlink:href="#1"/><use xlink:href="#2" y="4.342"/><text y="8.183" class="i">[</text><text x="1.002" y="8.183" class="j">0</text><text x="2.004" y="8.183" class="i">]</text><text x="4.008" y="8.183" class="k">dcefram</text><text x="11.022" y="8.183" class="l">@</text><text x="12.024" y="8.183" class="k">danphilus</text><text x="22.044" y="8.183" class="h">~/p/blog</text><text x="31.062" y="8.183" class="m">(master)</text><text x="40.08" y="8.183" class="n">➞</text><text x="42.084" y="8.183" class="t">kahitsa</text><text x="49.098" y="8.183" class="u">an</text><text x="52.104" y="8.183" class="u">--sa=greenbelt</text></svg><svg x="2442"><use xlink:href="#a"/><use xlink:href="#b" x="49.996" y="6.488"/><use xlink:href="#1"/><use xlink:href="#2" y="4.342"/><text y="8.183" class="i">[</text><text x="1.002" y="8.183" class="j">0</text><text x="2.004" y="8.183" class="i">]</text><text x="4.008" y="8.183" class="k">dcefram</text><text x="11.022" y="8.183" class="l">@</text><text x="12.024" y="8.183" class="k">danphilus</text><text x="22.044" y="8.183" class="h">~/p/blog</text><text x="31.062" y="8.183" class="m">(master)</text><text x="40.08" y="8.183" class="n">➞</text><text x="42.084" y="8.183" class="t">kahitsaa</text><text x="50.1" y="8.183" class="u">n</text><text x="52.104" y="8.183" class="u">--sa=greenbelt</text></svg><svg x="2553"><use xlink:href="#a"/><use xlink:href="#b" x="65.996" y="6.488"/><use xlink:href="#1"/><use xlink:href="#2" y="4.342"/><text y="8.183" class="i">[</text><text x="1.002" y="8.183" class="j">0</text><text x="2.004" y="8.183" class="i">]</text><text x="4.008" y="8.183" class="k">dcefram</text><text x="11.022" y="8.183" class="l">@</text><text x="12.024" y="8.183" class="k">danphilus</text><text x="22.044" y="8.183" class="h">~/p/blog</text><text x="31.062" y="8.183" class="m">(master)</text><text x="40.08" y="8.183" class="n">➞</text><text x="42.084" y="8.183" class="t">kahitsaan</text><text x="52.104" y="8.183" class="t">--sa=greenbelt</text></svg><svg x="2664"><use xlink:href="#a"/><use xlink:href="#b" x="65.996" y="6.488"/><use xlink:href="#1"/><use xlink:href="#2" y="4.342"/><use xlink:href="#4" y="6.513"/></svg><svg x="2775"><use xlink:href="#a"/><use xlink:href="#b" x="-.004" y="8.659"/><use xlink:href="#1"/><use xlink:href="#2" y="4.342"/><use xlink:href="#4" y="6.513"/></svg><svg x="2886"><use xlink:href="#a"/><use xlink:href="#b" x="-.004" y="8.659"/><use xlink:href="#1"/><use xlink:href="#2" y="4.342"/><use xlink:href="#4" y="6.513"/></svg><svg x="2997"><use xlink:href="#a"/><use xlink:href="#b" x="-.004" y="8.659"/><use xlink:href="#1"/><use xlink:href="#2" y="4.342"/><use xlink:href="#4" y="6.513"/></svg><svg x="3108"><use xlink:href="#a"/><use xlink:href="#b" x="-.004" y="8.659"/><use xlink:href="#1"/><use xlink:href="#2" y="4.342"/><use xlink:href="#4" y="6.513"/></svg><svg x="3219"><use xlink:href="#a"/><use xlink:href="#b" x="-.004" y="8.659"/><use xlink:href="#1"/><use xlink:href="#2" y="4.342"/><use xlink:href="#4" y="6.513"/></svg><svg x="3330"><use xlink:href="#a"/><use xlink:href="#b" x="-.004" y="15.172"/><use xlink:href="#1"/><use xlink:href="#2" y="4.342"/><use xlink:href="#4" y="6.513"/><use xlink:href="#5" y="8.684"/><use xlink:href="#6" y="10.855"/><use xlink:href="#7" y="13.026"/></svg><svg x="3441"><use xlink:href="#a"/><use xlink:href="#b" x="-.004" y="15.172"/><use xlink:href="#1"/><use xlink:href="#2" y="4.342"/><use xlink:href="#4" y="6.513"/><use xlink:href="#5" y="8.684"/><use xlink:href="#6" y="10.855"/><use xlink:href="#7" y="13.026"/></svg><svg x="3552"><use xlink:href="#a"/><use xlink:href="#b" x="-.004" y="15.172"/><use xlink:href="#1"/><use xlink:href="#2" y="4.342"/><use xlink:href="#4" y="6.513"/><use xlink:href="#5" y="8.684"/><use xlink:href="#6" y="10.855"/><use xlink:href="#7" y="13.026"/></svg><svg x="3663"><use xlink:href="#a"/><use xlink:href="#b" x="-.004" y="15.172"/><use xlink:href="#1"/><use xlink:href="#2" y="4.342"/><use xlink:href="#4" y="6.513"/><use xlink:href="#5" y="8.684"/><use xlink:href="#6" y="10.855"/><use xlink:href="#7" y="13.026"/></svg><svg x="3774"><use xlink:href="#a"/><use xlink:href="#b" x="-.004" y="15.172"/><use xlink:href="#1"/><use xlink:href="#2" y="4.342"/><use xlink:href="#4" y="6.513"/><use xlink:href="#5" y="8.684"/><use xlink:href="#6" y="10.855"/><use xlink:href="#7" y="13.026"/></svg><svg x="3885"><use xlink:href="#a"/><use xlink:href="#b" x="-.004" y="15.172"/><use xlink:href="#1"/><use xlink:href="#2" y="4.342"/><use xlink:href="#4" y="6.513"/><use xlink:href="#5" y="8.684"/><use xlink:href="#6" y="10.855"/><use xlink:href="#7" y="13.026"/></svg><svg x="3996"><use xlink:href="#a"/><use xlink:href="#b" x="41.996" y="15.172"/><use xlink:href="#1"/><use xlink:href="#2" y="4.342"/><use xlink:href="#4" y="6.513"/><use xlink:href="#5" y="8.684"/><use xlink:href="#6" y="10.855"/><use xlink:href="#7" y="13.026"/><use xlink:href="#3" y="15.197"/></svg><svg x="4107"><use xlink:href="#a"/><use xlink:href="#b" x="65.996" y="15.172"/><use xlink:href="#1"/><use xlink:href="#2" y="4.342"/><use xlink:href="#4" y="6.513"/><use xlink:href="#5" y="8.684"/><use xlink:href="#6" y="10.855"/><use xlink:href="#7" y="13.026"/><text y="16.867" class="i">[</text><text x="1.002" y="16.867" class="j">0</text><text x="2.004" y="16.867" class="i">]</text><text x="4.008" y="16.867" class="k">dcefram</text><text x="11.022" y="16.867" class="l">@</text><text x="12.024" y="16.867" class="k">danphilus</text><text x="22.044" y="16.867" class="h">~/p/blog</text><text x="31.062" y="16.867" class="m">(master)</text><text x="40.08" y="16.867" class="n">➞</text><text x="42.084" y="16.867" class="f">kahitsaan</text><text x="52.104" y="16.867" class="f">--sa=greenbelt</text></svg><svg x="4218"><use xlink:href="#a"/><use xlink:href="#b" x="65.996" y="15.172"/><use xlink:href="#1"/><use xlink:href="#2" y="4.342"/><use xlink:href="#4" y="6.513"/><use xlink:href="#5" y="8.684"/><use xlink:href="#6" y="10.855"/><use xlink:href="#7" y="13.026"/><use xlink:href="#4" y="15.197"/></svg><svg x="4329"><use xlink:href="#a"/><use xlink:href="#b" x="-.004" y="17.343"/><use xlink:href="#1"/><use xlink:href="#2" y="4.342"/><use xlink:href="#4" y="6.513"/><use xlink:href="#5" y="8.684"/><use xlink:href="#6" y="10.855"/><use xlink:href="#7" y="13.026"/><use xlink:href="#4" y="15.197"/></svg><svg x="4440"><use xlink:href="#a"/><use xlink:href="#b" x="-.004" y="17.343"/><use xlink:href="#1"/><use xlink:href="#2" y="4.342"/><use xlink:href="#4" y="6.513"/><use xlink:href="#5" y="8.684"/><use xlink:href="#6" y="10.855"/><use xlink:href="#7" y="13.026"/><use xlink:href="#4" y="15.197"/></svg><svg x="4551"><use xlink:href="#a"/><use xlink:href="#b" x="-.004" y="17.343"/><use xlink:href="#1"/><use xlink:href="#2" y="4.342"/><use xlink:href="#4" y="6.513"/><use xlink:href="#5" y="8.684"/><use xlink:href="#6" y="10.855"/><use xlink:href="#7" y="13.026"/><use xlink:href="#4" y="15.197"/></svg><svg x="4662"><use xlink:href="#a"/><use xlink:href="#b" x="-.004" y="23.856"/><use xlink:href="#1"/><use xlink:href="#2" y="4.342"/><use xlink:href="#4" y="6.513"/><use xlink:href="#5" y="8.684"/><use xlink:href="#6" y="10.855"/><use xlink:href="#7" y="13.026"/><use xlink:href="#4" y="15.197"/><use xlink:href="#8" y="17.368"/><use xlink:href="#9" y="19.539"/><use xlink:href="#10" y="21.71"/></svg><svg x="4773"><use xlink:href="#a"/><use xlink:href="#b" x="-.004" y="23.856"/><use xlink:href="#1"/><use xlink:href="#2" y="4.342"/><use xlink:href="#4" y="6.513"/><use xlink:href="#5" y="8.684"/><use xlink:href="#6" y="10.855"/><use xlink:href="#7" y="13.026"/><use xlink:href="#4" y="15.197"/><use xlink:href="#8" y="17.368"/><use xlink:href="#9" y="19.539"/><use xlink:href="#10" y="21.71"/></svg><svg x="4884"><use xlink:href="#a"/><use xlink:href="#b" x="-.004" y="23.856"/><use xlink:href="#1"/><use xlink:href="#2" y="4.342"/><use xlink:href="#4" y="6.513"/><use xlink:href="#5" y="8.684"/><use xlink:href="#6" y="10.855"/><use xlink:href="#7" y="13.026"/><use xlink:href="#4" y="15.197"/><use xlink:href="#8" y="17.368"/><use xlink:href="#9" y="19.539"/><use xlink:href="#10" y="21.71"/></svg><svg x="4995"><use xlink:href="#a"/><use xlink:href="#b" x="-.004" y="23.856"/><use xlink:href="#1"/><use xlink:href="#2" y="4.342"/><use xlink:href="#4" y="6.513"/><use xlink:href="#5" y="8.684"/><use xlink:href="#6" y="10.855"/><use xlink:href="#7" y="13.026"/><use xlink:href="#4" y="15.197"/><use xlink:href="#8" y="17.368"/><use xlink:href="#9" y="19.539"/><use xlink:href="#10" y="21.71"/></svg><svg x="5106"><use xlink:href="#a"/><use xlink:href="#b" x="41.996" y="23.856"/><use xlink:href="#1"/><use xlink:href="#2" y="4.342"/><use xlink:href="#4" y="6.513"/><use xlink:href="#5" y="8.684"/><use xlink:href="#6" y="10.855"/><use xlink:href="#7" y="13.026"/><use xlink:href="#4" y="15.197"/><use xlink:href="#8" y="17.368"/><use xlink:href="#9" y="19.539"/><use xlink:href="#10" y="21.71"/><use xlink:href="#3" y="23.881"/></svg><svg x="5217"><use xlink:href="#a"/><use xlink:href="#b" x="65.996" y="23.856"/><use xlink:href="#1"/><use xlink:href="#2" y="4.342"/><use xlink:href="#4" y="6.513"/><use xlink:href="#5" y="8.684"/><use xlink:href="#6" y="10.855"/><use xlink:href="#7" y="13.026"/><use xlink:href="#4" y="15.197"/><use xlink:href="#8" y="17.368"/><use xlink:href="#9" y="19.539"/><use xlink:href="#10" y="21.71"/><use xlink:href="#4" y="23.881"/></svg><svg x="5328"><use xlink:href="#a"/><use xlink:href="#b" x="-.004" y="26.027"/><use xlink:href="#1"/><use xlink:href="#2" y="4.342"/><use xlink:href="#4" y="6.513"/><use xlink:href="#5" y="8.684"/><use xlink:href="#6" y="10.855"/><use xlink:href="#7" y="13.026"/><use xlink:href="#4" y="15.197"/><use xlink:href="#8" y="17.368"/><use xlink:href="#9" y="19.539"/><use xlink:href="#10" y="21.71"/><use xlink:href="#4" y="23.881"/></svg><svg x="5439"><use xlink:href="#a"/><use xlink:href="#b" x="-.004" y="26.027"/><use xlink:href="#1"/><use xlink:href="#2" y="4.342"/><use xlink:href="#4" y="6.513"/><use xlink:href="#5" y="8.684"/><use xlink:href="#6" y="10.855"/><use xlink:href="#7" y="13.026"/><use xlink:href="#4" y="15.197"/><use xlink:href="#8" y="17.368"/><use xlink:href="#9" y="19.539"/><use xlink:href="#10" y="21.71"/><use xlink:href="#4" y="23.881"/></svg><svg x="5550"><use xlink:href="#a"/><use xlink:href="#b" x="-.004" y="26.027"/><use xlink:href="#1"/><use xlink:href="#2" y="4.342"/><use xlink:href="#4" y="6.513"/><use xlink:href="#5" y="8.684"/><use xlink:href="#6" y="10.855"/><use xlink:href="#7" y="13.026"/><use xlink:href="#4" y="15.197"/><use xlink:href="#8" y="17.368"/><use xlink:href="#9" y="19.539"/><use xlink:href="#10" y="21.71"/><use xlink:href="#4" y="23.881"/></svg><svg x="5661"><use xlink:href="#a"/><use xlink:href="#b" x="-.004" y="32.54"/><use xlink:href="#1"/><use xlink:href="#2" y="4.342"/><use xlink:href="#4" y="6.513"/><use xlink:href="#5" y="8.684"/><use xlink:href="#6" y="10.855"/><use xlink:href="#7" y="13.026"/><use xlink:href="#4" y="15.197"/><use xlink:href="#8" y="17.368"/><use xlink:href="#9" y="19.539"/><use xlink:href="#10" y="21.71"/><use xlink:href="#4" y="23.881"/><use xlink:href="#11" y="26.052"/><use xlink:href="#12" y="28.223"/><use xlink:href="#13" y="30.394"/></svg><svg x="5772"><use xlink:href="#a"/><use xlink:href="#b" x="-.004" y="32.54"/><use xlink:href="#1"/><use xlink:href="#2" y="4.342"/><use xlink:href="#4" y="6.513"/><use xlink:href="#5" y="8.684"/><use xlink:href="#6" y="10.855"/><use xlink:href="#7" y="13.026"/><use xlink:href="#4" y="15.197"/><use xlink:href="#8" y="17.368"/><use xlink:href="#9" y="19.539"/><use xlink:href="#10" y="21.71"/><use xlink:href="#4" y="23.881"/><use xlink:href="#11" y="26.052"/><use xlink:href="#12" y="28.223"/><use xlink:href="#13" y="30.394"/></svg><svg x="5883"><use xlink:href="#a"/><use xlink:href="#b" x="-.004" y="32.54"/><use xlink:href="#1"/><use xlink:href="#2" y="4.342"/><use xlink:href="#4" y="6.513"/><use xlink:href="#5" y="8.684"/><use xlink:href="#6" y="10.855"/><use xlink:href="#7" y="13.026"/><use xlink:href="#4" y="15.197"/><use xlink:href="#8" y="17.368"/><use xlink:href="#9" y="19.539"/><use xlink:href="#10" y="21.71"/><use xlink:href="#4" y="23.881"/><use xlink:href="#11" y="26.052"/><use xlink:href="#12" y="28.223"/><use xlink:href="#13" y="30.394"/></svg><svg x="5994"><use xlink:href="#a"/><use xlink:href="#b" x="-.004" y="32.54"/><use xlink:href="#1"/><use xlink:href="#2" y="4.342"/><use xlink:href="#4" y="6.513"/><use xlink:href="#5" y="8.684"/><use xlink:href="#6" y="10.855"/><use xlink:href="#7" y="13.026"/><use xlink:href="#4" y="15.197"/><use xlink:href="#8" y="17.368"/><use xlink:href="#9" y="19.539"/><use xlink:href="#10" y="21.71"/><use xlink:href="#4" y="23.881"/><use xlink:href="#11" y="26.052"/><use xlink:href="#12" y="28.223"/><use xlink:href="#13" y="30.394"/></svg><svg x="6105"><use xlink:href="#a"/><use xlink:href="#b" x="41.996" y="32.54"/><use xlink:href="#1"/><use xlink:href="#2" y="4.342"/><use xlink:href="#4" y="6.513"/><use xlink:href="#5" y="8.684"/><use xlink:href="#6" y="10.855"/><use xlink:href="#7" y="13.026"/><use xlink:href="#4" y="15.197"/><use xlink:href="#8" y="17.368"/><use xlink:href="#9" y="19.539"/><use xlink:href="#10" y="21.71"/><use xlink:href="#4" y="23.881"/><use xlink:href="#11" y="26.052"/><use xlink:href="#12" y="28.223"/><use xlink:href="#13" y="30.394"/><use xlink:href="#3" y="32.565"/></svg><svg x="6216"><use xlink:href="#a"/><use xlink:href="#b" x="-.004" y="34.711"/><use xlink:href="#1"/><use xlink:href="#2" y="4.342"/><use xlink:href="#4" y="6.513"/><use xlink:href="#5" y="8.684"/><use xlink:href="#6" y="10.855"/><use xlink:href="#7" y="13.026"/><use xlink:href="#4" y="15.197"/><use xlink:href="#8" y="17.368"/><use xlink:href="#9" y="19.539"/><use xlink:href="#10" y="21.71"/><use xlink:href="#4" y="23.881"/><use xlink:href="#11" y="26.052"/><use xlink:href="#12" y="28.223"/><use xlink:href="#13" y="30.394"/><use xlink:href="#3" y="32.565"/></svg><svg x="6327"><use xlink:href="#a"/><use xlink:href="#b" x="-.004" y="34.711"/><use xlink:href="#1"/><use xlink:href="#2" y="4.342"/><use xlink:href="#4" y="6.513"/><use xlink:href="#5" y="8.684"/><use xlink:href="#6" y="10.855"/><use xlink:href="#7" y="13.026"/><use xlink:href="#4" y="15.197"/><use xlink:href="#8" y="17.368"/><use xlink:href="#9" y="19.539"/><use xlink:href="#10" y="21.71"/><use xlink:href="#4" y="23.881"/><use xlink:href="#11" y="26.052"/><use xlink:href="#12" y="28.223"/><use xlink:href="#13" y="30.394"/><use xlink:href="#3" y="32.565"/></svg></svg></g></g></svg></svg>